<svg width="28" height="28" viewBox="0 0 28 28" fill="none" xmlns="http://www.w3.org/2000/svg">
<path opacity="0.2" d="M18.3747 10.9373C18.3747 12.2352 17.9898 13.504 17.2687 14.5832C16.5476 15.6624 15.5227 16.5035 14.3236 17.0002C13.1245 17.4969 11.805 17.6268 10.532 17.3736C9.25906 17.1204 8.08976 16.4954 7.17199 15.5776C6.25422 14.6599 5.62922 13.4905 5.37601 12.2176C5.12279 10.9446 5.25275 9.62511 5.74944 8.42599C6.24613 7.22687 7.08725 6.20197 8.16643 5.48089C9.24561 4.7598 10.5144 4.37492 11.8123 4.37492C13.5528 4.37492 15.2219 5.06632 16.4526 6.297C17.6833 7.52769 18.3747 9.19686 18.3747 10.9373Z" fill="#D5DBE6"/>
<path d="M15.7497 17.2459C17.1214 16.3916 18.1775 15.1138 18.7582 13.6059C19.339 12.0979 19.4128 10.4418 18.9685 8.88813C18.5243 7.33447 17.5861 5.96777 16.2959 4.99481C15.0057 4.02184 13.4337 3.49554 11.8178 3.49554C10.2018 3.49554 8.62987 4.02184 7.33968 4.99481C6.04949 5.96777 5.11129 7.33447 4.66702 8.88813C4.22274 10.4418 4.29657 12.0979 4.87733 13.6059C5.45808 15.1138 6.51417 16.3916 7.88581 17.2459C5.62726 17.9853 3.59511 19.3667 1.96107 21.3113C1.81169 21.489 1.739 21.7187 1.75899 21.95C1.77899 22.1813 1.89004 22.3951 2.06771 22.5445C2.24538 22.6939 2.47512 22.7666 2.70639 22.7466C2.93766 22.7266 3.15151 22.6155 3.3009 22.4379C5.49601 19.8173 8.52127 18.3747 11.8123 18.3747C15.1033 18.3747 18.1286 19.8173 20.3292 22.4379C20.4786 22.6155 20.6924 22.7266 20.9237 22.7466C21.155 22.7666 21.3847 22.6939 21.5624 22.5445C21.74 22.3951 21.8511 22.1813 21.8711 21.95C21.8911 21.7187 21.8184 21.489 21.669 21.3113C20.035 19.3667 18.0028 17.9853 15.7497 17.2459ZM6.12491 10.9373C6.12491 9.81243 6.45847 8.71283 7.08341 7.77754C7.70835 6.84225 8.5966 6.11328 9.63584 5.68282C10.6751 5.25235 11.8186 5.13972 12.9219 5.35917C14.0251 5.57862 15.0385 6.12029 15.8339 6.91569C16.6293 7.71109 17.171 8.72448 17.3904 9.82773C17.6099 10.931 17.4972 12.0745 17.0668 13.1138C16.6363 14.153 15.9073 15.0413 14.9721 15.6662C14.0368 16.2911 12.9372 16.6247 11.8123 16.6247C10.3044 16.623 8.85885 16.0232 7.79263 14.957C6.72641 13.8908 6.12665 12.4451 6.12491 10.9373ZM27.7436 14.6188L24.2437 18.1187C24.1624 18.2001 24.0659 18.2646 23.9597 18.3087C23.8534 18.3527 23.7396 18.3753 23.6246 18.3753C23.5096 18.3753 23.3958 18.3527 23.2895 18.3087C23.1833 18.2646 23.0868 18.2001 23.0056 18.1187L21.2556 16.3688C21.0914 16.2046 20.9992 15.9819 20.9992 15.7497C20.9992 15.5175 21.0914 15.2948 21.2556 15.1307C21.4198 14.9665 21.6424 14.8742 21.8746 14.8742C22.1068 14.8742 22.3295 14.9665 22.4937 15.1307L23.6246 16.2627L26.5055 13.3807C26.6697 13.2165 26.8924 13.1243 27.1245 13.1243C27.3567 13.1243 27.5794 13.2165 27.7436 13.3807C27.9078 13.5449 28 13.7675 28 13.9997C28 14.2319 27.9078 14.4546 27.7436 14.6188Z" fill="#D5DBE6"/>
</svg>
