<svg width="17" height="17" viewBox="0 0 17 17" fill="none" xmlns="http://www.w3.org/2000/svg">
<g clip-path="url(#clip0_3_2487)">
<path d="M5.84375 9.5625C5.84375 8.09554 7.03304 6.90625 8.5 6.90625C9.96696 6.90625 11.1562 8.09554 11.1562 9.5625C11.1562 11.0295 9.96696 12.2188 8.5 12.2188C7.03304 12.2188 5.84375 11.0295 5.84375 9.5625Z" fill="#D5DBE6"/>
<path d="M2.125 5.84375C2.125 4.67004 3.07629 3.71875 4.25 3.71875C5.42371 3.71875 6.375 4.67004 6.375 5.84375C6.375 7.01746 5.42371 7.96875 4.25 7.96875C3.07629 7.96875 2.125 7.01746 2.125 5.84375Z" fill="#D5DBE6"/>
<path d="M10.625 5.84375C10.625 4.67004 11.5763 3.71875 12.75 3.71875C13.9237 3.71875 14.875 4.67004 14.875 5.84375C14.875 7.01746 13.9237 7.96875 12.75 7.96875C11.5763 7.96875 10.625 7.01746 10.625 5.84375Z" fill="#D5DBE6"/>
<path d="M12.75 7.96875C14.0045 7.96804 15.186 8.55879 15.9375 9.5625" stroke="#D5DBE6" stroke-width="1.0625" stroke-linecap="round" stroke-linejoin="round"/>
<path d="M1.0625 9.5625C1.81404 8.55879 2.99554 7.96804 4.25 7.96875" stroke="#D5DBE6" stroke-width="1.0625" stroke-linecap="round" stroke-linejoin="round"/>
<path d="M5.84375 9.5625C5.84375 8.09554 7.03304 6.90625 8.5 6.90625C9.96696 6.90625 11.1562 8.09554 11.1562 9.5625C11.1562 11.0295 9.96696 12.2187 8.5 12.2187C7.03304 12.2187 5.84375 11.0295 5.84375 9.5625Z" stroke="#D5DBE6" stroke-width="1.0625" stroke-linecap="round" stroke-linejoin="round"/>
<path d="M4.78125 14.3437C5.55687 13.027 6.97142 12.2188 8.5 12.2188C10.0286 12.2188 11.4431 13.027 12.2187 14.3437" stroke="#D5DBE6" stroke-width="1.0625" stroke-linecap="round" stroke-linejoin="round"/>
<path d="M10.6916 5.31231C10.9678 4.24344 12.0162 3.56415 13.1049 3.74902C14.1936 3.9339 14.9593 4.92131 14.8665 6.02206C14.7744 7.1221 13.8543 7.96856 12.75 7.96856" stroke="#D5DBE6" stroke-width="1.0625" stroke-linecap="round" stroke-linejoin="round"/>
<path d="M4.25 7.96856C3.14571 7.96856 2.22558 7.1221 2.1335 6.02206C2.04071 4.92131 2.80642 3.9339 3.89512 3.74902C4.98312 3.56415 6.03217 4.24344 6.30842 5.31231" stroke="#D5DBE6" stroke-width="1.0625" stroke-linecap="round" stroke-linejoin="round"/>
</g>
<defs>
<clipPath id="clip0_3_2487">
<rect width="17" height="17" fill="white"/>
</clipPath>
</defs>
</svg>
