<svg width="125" height="64" viewBox="0 0 125 64" fill="none" xmlns="http://www.w3.org/2000/svg">
<g filter="url(#filter0_i_3_781)">
<rect width="125" height="64" rx="8" fill="#10131C"/>
<mask id="mask0_3_781" style="mask-type:alpha" maskUnits="userSpaceOnUse" x="12" y="12" width="40" height="40">
<g clip-path="url(#clip0_3_781)">
<path d="M22 28.4067V18.25C22 17.56 21.44 17 20.75 17C20.06 17 19.5 17.56 19.5 18.25V28.4067C17.2867 28.9733 15.74 30.9667 15.74 33.25C15.74 35.5333 17.2867 37.5267 19.5 38.0933V45.75C19.5 46.44 20.06 47 20.75 47C21.44 47 22 46.44 22 45.75V38.0933C24.2117 37.5267 25.76 35.5333 25.76 33.25C25.76 30.9667 24.2117 28.9733 22 28.4067ZM20.75 35.75C19.3683 35.75 18.25 34.63 18.25 33.25C18.25 31.87 19.3683 30.75 20.75 30.75C22.13 30.75 23.25 31.87 23.25 33.25C23.25 34.63 22.13 35.75 20.75 35.75ZM33.25 20.9067V18.25C33.25 17.56 32.69 17 32 17C31.31 17 30.75 17.56 30.75 18.25V20.9067C28.5367 21.4733 26.99 23.4667 26.99 25.75C26.99 28.0333 28.5367 30.0267 30.75 30.5933V45.75C30.75 46.44 31.31 47 32 47C32.69 47 33.25 46.44 33.25 45.75V30.5933C35.4617 30.0267 37.01 28.0333 37.01 25.75C37.01 23.4667 35.4617 21.4733 33.25 20.9067ZM32 28.25C30.6183 28.25 29.5 27.13 29.5 25.75C29.5 24.37 30.6183 23.25 32 23.25C33.38 23.25 34.5 24.37 34.5 25.75C34.5 27.13 33.38 28.25 32 28.25ZM48.25 38.25C48.2483 35.97 46.7067 33.98 44.5 33.4067V18.25C44.5 17.56 43.94 17 43.25 17C42.56 17 42 17.56 42 18.25V33.4067C39.7867 33.9733 38.24 35.9667 38.24 38.25C38.24 40.5333 39.7867 42.5267 42 43.0933V45.75C42 46.44 42.56 47 43.25 47C43.94 47 44.5 46.44 44.5 45.75V43.0933C46.7067 42.52 48.2483 40.53 48.25 38.25ZM43.25 40.75C41.8683 40.75 40.75 39.63 40.75 38.25C40.75 36.87 41.8683 35.75 43.25 35.75C44.63 35.75 45.75 36.87 45.75 38.25C45.75 39.63 44.63 40.75 43.25 40.75Z" fill="black"/>
</g>
</mask>
<g mask="url(#mask0_3_781)">
<rect opacity="0.5" x="12" y="12" width="40" height="40" fill="#D5DBE6"/>
</g>
<rect x="62" y="13" width="1" height="38" fill="#D8E7F2" fill-opacity="0.07"/>
<g opacity="0.5">
<path d="M86.75 32C86.75 28.5483 89.5483 25.75 93 25.75C96.4517 25.75 99.25 28.5483 99.25 32C99.25 35.4517 96.4517 38.25 93 38.25C89.5483 38.25 86.75 35.4517 86.75 32Z" stroke="#D5DBE6" stroke-width="2.5" stroke-linecap="round" stroke-linejoin="round"/>
<path d="M93.3217 44.205C93.1117 44.205 92.9 44.205 92.6967 44.205L87.6883 47C85.7383 46.345 83.93 45.3267 82.3583 44L82.34 38.375C82.2283 38.2 82.1233 38.0233 82.0267 37.8417L77.0483 35.0067C76.655 33.0217 76.655 30.98 77.0483 28.9967L82.0233 26.1683C82.1233 25.9883 82.2283 25.8117 82.335 25.6367L82.36 20.0117C83.93 18.68 85.7383 17.6583 87.6883 17L92.6883 19.795C92.8983 19.795 93.1083 19.795 93.3133 19.795L98.3133 17C100.263 17.655 102.07 18.6733 103.643 20L103.662 25.625C103.773 25.8 103.877 25.9767 103.973 26.1583L108.95 28.9917C109.343 30.9767 109.343 33.0183 108.95 35.0017L103.975 37.83C103.873 38.01 103.77 38.1867 103.663 38.3617L103.638 43.9867C102.068 45.3183 100.262 46.34 98.3133 47L93.3217 44.205Z" stroke="#D5DBE6" stroke-width="2.5" stroke-linecap="round" stroke-linejoin="round"/>
</g>
</g>
<defs>
<filter id="filter0_i_3_781" x="0" y="0" width="125" height="65" filterUnits="userSpaceOnUse" color-interpolation-filters="sRGB">
<feFlood flood-opacity="0" result="BackgroundImageFix"/>
<feBlend mode="normal" in="SourceGraphic" in2="BackgroundImageFix" result="shape"/>
<feColorMatrix in="SourceAlpha" type="matrix" values="0 0 0 0 0 0 0 0 0 0 0 0 0 0 0 0 0 0 127 0" result="hardAlpha"/>
<feOffset dy="1"/>
<feGaussianBlur stdDeviation="0.5"/>
<feComposite in2="hardAlpha" operator="arithmetic" k2="-1" k3="1"/>
<feColorMatrix type="matrix" values="0 0 0 0 0.811765 0 0 0 0 0.905882 0 0 0 0 1 0 0 0 0.2 0"/>
<feBlend mode="normal" in2="shape" result="effect1_innerShadow_3_781"/>
</filter>
<clipPath id="clip0_3_781">
<rect width="40" height="40" fill="white" transform="translate(12 12)"/>
</clipPath>
</defs>
</svg>
