<svg width="726" height="253" viewBox="0 0 726 253" fill="none" xmlns="http://www.w3.org/2000/svg">
<g clip-path="url(#clip0_3_375)">
<g filter="url(#filter0_i_3_375)">
<rect x="453.49" y="10.46" width="53.02" height="51.07" rx="8" fill="#10131C"/>
<path d="M480.982 35.99C480.982 33.8207 482.74 32.0625 484.909 32.0625C487.079 32.0625 488.837 33.8207 488.837 35.99C488.837 38.1593 487.079 39.9175 484.909 39.9175C482.74 39.9175 480.982 38.1593 480.982 35.99Z" stroke="#D5DBE6" stroke-width="1.96375" stroke-linecap="round" stroke-linejoin="round"/>
<path d="M480.982 32.0625H484.909C487.079 32.0625 488.837 30.3043 488.837 28.135C488.837 25.9657 487.079 24.2075 484.909 24.2075H480.982" stroke="#D5DBE6" stroke-width="1.96375" stroke-linecap="round" stroke-linejoin="round"/>
<path d="M480.982 24.2075H476.072C473.903 24.2075 472.145 25.9657 472.145 28.135C472.145 30.3043 473.903 32.0625 476.072 32.0625H480.982V24.2075Z" stroke="#D5DBE6" stroke-width="1.96375" stroke-linecap="round" stroke-linejoin="round"/>
<path d="M480.982 32.0625H476.072C473.903 32.0625 472.145 33.8207 472.145 35.99C472.145 38.1593 473.903 39.9175 476.072 39.9175H480.982V32.0625Z" stroke="#D5DBE6" stroke-width="1.96375" stroke-linecap="round" stroke-linejoin="round"/>
<path d="M480.982 39.9175H476.563C474.123 39.9175 472.145 41.8956 472.145 44.3359C472.145 46.7762 474.123 48.7544 476.563 48.7544C479.004 48.7544 480.982 46.7762 480.982 44.3359V39.9175Z" stroke="#D5DBE6" stroke-width="1.96375" stroke-linecap="round" stroke-linejoin="round"/>
</g>
<g filter="url(#filter1_f_3_375)">
<g filter="url(#filter2_i_3_375)">
<rect x="513.51" y="178.53" width="54.98" height="52.93" rx="8" fill="#10131C"/>
<path d="M529.801 194.819H532.855L544.054 215.181H549.145V194.819" stroke="#D5DBE6" stroke-width="2.03625" stroke-linecap="round" stroke-linejoin="round"/>
<path d="M529.801 215.181H535.909" stroke="#D5DBE6" stroke-width="2.03625" stroke-linecap="round" stroke-linejoin="round"/>
<path d="M546.091 194.819H552.199" stroke="#D5DBE6" stroke-width="2.03625" stroke-linecap="round" stroke-linejoin="round"/>
<path d="M549.145 215.181L537.946 194.819H532.855V215.181" stroke="#D5DBE6" stroke-width="2.03625" stroke-linecap="round" stroke-linejoin="round"/>
</g>
</g>
<g filter="url(#filter3_i_3_375)">
<rect x="24.49" y="36.46" width="53.02" height="51.07" rx="8" fill="#10131C"/>
<path d="M39.2175 53.1531H62.7825V69.845C62.7825 70.3869 62.3426 70.8268 61.8006 70.8268H40.1994C39.6574 70.8268 39.2175 70.3869 39.2175 69.845V53.1531Z" stroke="#D5DBE6" stroke-width="1.96375" stroke-linecap="round" stroke-linejoin="round"/>
<path d="M62.7825 53.1531L51 63.9537L39.2175 53.1531" stroke="#D5DBE6" stroke-width="1.96375" stroke-linecap="round" stroke-linejoin="round"/>
</g>
<g filter="url(#filter4_i_3_375)">
<rect x="186.49" y="174.46" width="53.02" height="51.07" rx="8" fill="#10131C"/>
<path d="M201.218 205.881L213 212.754L224.783 205.881" stroke="#D5DBE6" stroke-width="1.96375" stroke-linecap="round" stroke-linejoin="round"/>
<path d="M201.218 199.99L213 206.863L224.783 199.99" stroke="#D5DBE6" stroke-width="1.96375" stroke-linecap="round" stroke-linejoin="round"/>
<path d="M201.218 194.099L213 200.972L224.783 194.099L213 187.226L201.218 194.099Z" stroke="#D5DBE6" stroke-width="1.96375" stroke-linecap="round" stroke-linejoin="round"/>
</g>
<g filter="url(#filter5_f_3_375)">
<g filter="url(#filter6_i_3_375)">
<rect x="141.51" y="35.53" width="54.98" height="52.93" rx="8" fill="#10131C"/>
<path d="M165.946 63.7648V55.5342L171.609 52.264C173.968 50.9011 176.945 51.2663 178.907 53.1586C180.867 55.051 181.337 58.013 180.06 60.4199" stroke="#D5DBE6" stroke-width="2.03625" stroke-linecap="round" stroke-linejoin="round"/>
<path d="M169 65.5269L161.873 61.4123V54.8732C161.873 52.1487 163.677 49.7528 166.296 49.0007C168.914 48.2486 171.715 49.3224 173.161 51.6315" stroke="#D5DBE6" stroke-width="2.03625" stroke-linecap="round" stroke-linejoin="round"/>
<path d="M172.054 63.7633L164.927 67.8779L159.264 64.609C156.91 63.2448 155.741 60.4877 156.4 57.846C157.057 55.2056 159.382 53.3187 162.101 53.2183" stroke="#D5DBE6" stroke-width="2.03625" stroke-linecap="round" stroke-linejoin="round"/>
<path d="M172.054 60.2366V68.4671L166.391 71.736C164.032 73.0989 161.055 72.7351 159.093 70.8427C157.133 68.9504 156.662 65.9883 157.941 63.5815" stroke="#D5DBE6" stroke-width="2.03625" stroke-linecap="round" stroke-linejoin="round"/>
<path d="M169 58.4731L176.127 62.5877V69.1268C176.127 71.8513 174.323 74.2473 171.704 74.9993C169.086 75.7514 166.285 74.6776 164.839 72.3685" stroke="#D5DBE6" stroke-width="2.03625" stroke-linecap="round" stroke-linejoin="round"/>
<path d="M165.946 60.2367L173.072 56.1221L178.736 59.3909C181.097 60.7525 182.27 63.5137 181.611 66.1581C180.953 68.8038 178.623 70.6921 175.899 70.7885" stroke="#D5DBE6" stroke-width="2.03625" stroke-linecap="round" stroke-linejoin="round"/>
</g>
</g>
<g filter="url(#filter7_f_3_375)">
<g filter="url(#filter8_i_3_375)">
<rect x="609.51" y="46.53" width="54.98" height="52.93" rx="8" fill="#10131C"/>
<path d="M626.819 61.8005H632.928L647.181 84.1993H641.073L626.819 61.8005Z" stroke="#D5DBE6" stroke-width="2.03625" stroke-linecap="round" stroke-linejoin="round"/>
<path d="M635.203 74.9766L626.819 84.1994" stroke="#D5DBE6" stroke-width="2.03625" stroke-linecap="round" stroke-linejoin="round"/>
<path d="M647.181 61.8005L638.797 71.0234" stroke="#D5DBE6" stroke-width="2.03625" stroke-linecap="round" stroke-linejoin="round"/>
</g>
</g>
<g filter="url(#filter9_i_3_375)">
<rect x="288" y="79.98" width="54" height="52" rx="8" fill="#10131C"/>
<path d="M312 103.98C312 101.771 313.791 99.98 316 99.98C318.209 99.98 320 101.771 320 103.98C320 106.189 318.209 107.98 316 107.98C313.791 107.98 312 106.189 312 103.98Z" stroke="#D5DBE6" stroke-width="2" stroke-linecap="round" stroke-linejoin="round"/>
<path d="M303 98.98H306" stroke="#D5DBE6" stroke-width="2" stroke-linecap="round" stroke-linejoin="round"/>
<path d="M303 105.98H306" stroke="#D5DBE6" stroke-width="2" stroke-linecap="round" stroke-linejoin="round"/>
<path d="M303 112.98H306" stroke="#D5DBE6" stroke-width="2" stroke-linecap="round" stroke-linejoin="round"/>
<path d="M310 110.98C311.416 109.092 313.639 107.98 316 107.98C318.361 107.98 320.584 109.092 322 110.98" stroke="#D5DBE6" stroke-width="2" stroke-linecap="round" stroke-linejoin="round"/>
<path d="M306 94.98C306 94.428 306.448 93.98 307 93.98H325C325.552 93.98 326 94.428 326 94.98V116.98C326 117.532 325.552 117.98 325 117.98H307C306.448 117.98 306 117.532 306 116.98V94.98Z" stroke="#D5DBE6" stroke-width="2" stroke-linecap="round" stroke-linejoin="round"/>
</g>
<g filter="url(#filter10_f_3_375)">
<g filter="url(#filter11_i_3_375)">
<rect x="26.51" y="152.53" width="54.98" height="52.93" rx="8" fill="#10131C"/>
<path d="M50.9456 176.964C50.9456 174.714 52.7687 172.891 55.0181 172.891C57.2675 172.891 59.0906 174.714 59.0906 176.964C59.0906 179.213 57.2675 181.036 55.0181 181.036C52.7687 181.036 50.9456 179.213 50.9456 176.964Z" stroke="#D5DBE6" stroke-width="2.03625" stroke-linecap="round" stroke-linejoin="round"/>
<path d="M41.7825 171.873H44.8369" stroke="#D5DBE6" stroke-width="2.03625" stroke-linecap="round" stroke-linejoin="round"/>
<path d="M41.7825 179H44.8369" stroke="#D5DBE6" stroke-width="2.03625" stroke-linecap="round" stroke-linejoin="round"/>
<path d="M41.7825 186.127H44.8369" stroke="#D5DBE6" stroke-width="2.03625" stroke-linecap="round" stroke-linejoin="round"/>
<path d="M48.9094 184.091C50.351 182.168 52.614 181.036 55.0181 181.036C57.4223 181.036 59.6852 182.168 61.1269 184.091" stroke="#D5DBE6" stroke-width="2.03625" stroke-linecap="round" stroke-linejoin="round"/>
<path d="M44.8369 167.801C44.8369 167.239 45.293 166.782 45.855 166.782H64.1812C64.7433 166.782 65.1994 167.239 65.1994 167.801V190.199C65.1994 190.761 64.7433 191.217 64.1812 191.217H45.855C45.293 191.217 44.8369 190.761 44.8369 190.199V167.801Z" stroke="#D5DBE6" stroke-width="2.03625" stroke-linecap="round" stroke-linejoin="round"/>
</g>
</g>
<rect width="726" height="253" rx="100" fill="url(#paint0_radial_3_375)"/>
<g filter="url(#filter13_di_3_375)">
<g clip-path="url(#clip1_3_375)">
<rect x="271.95" y="54.3701" width="124" height="124" rx="62" fill="#04070D"/>
<path d="M324.383 125.934L312.332 121.494C311.653 121.244 311.2 120.596 311.2 119.87C311.2 119.144 311.653 118.496 312.332 118.244L324.383 113.803L328.824 101.752C329.076 101.073 329.724 100.62 330.45 100.62C331.176 100.62 331.824 101.073 332.074 101.752L336.514 113.803L348.566 118.244C349.247 118.496 349.7 119.144 349.7 119.87C349.7 120.596 349.247 121.244 348.566 121.494L336.514 125.934L332.074 137.986C331.824 138.667 331.176 139.12 330.45 139.12C329.724 139.12 329.076 138.667 328.824 137.986L324.383 125.934Z" fill="#D5DBE6" fill-opacity="0.2"/>
<path d="M324.383 125.934L312.332 121.494C311.653 121.244 311.2 120.596 311.2 119.87C311.2 119.144 311.653 118.496 312.332 118.244L324.383 113.803L328.824 101.752C329.076 101.073 329.724 100.62 330.45 100.62C331.176 100.62 331.824 101.073 332.074 101.752L336.514 113.803L348.566 118.244C349.247 118.496 349.7 119.144 349.7 119.87C349.7 120.596 349.247 121.244 348.566 121.494L336.514 125.934L332.074 137.986C331.824 138.667 331.176 139.12 330.45 139.12C329.724 139.12 329.076 138.667 328.824 137.986L324.383 125.934Z" stroke="#D5DBE6" stroke-width="3.5" stroke-linecap="round" stroke-linejoin="round"/>
<path d="M344.45 91.8701V102.37" stroke="#D5DBE6" stroke-width="3.5" stroke-linecap="round" stroke-linejoin="round"/>
<path d="M354.95 104.12V111.12" stroke="#D5DBE6" stroke-width="3.5" stroke-linecap="round" stroke-linejoin="round"/>
<path d="M339.2 97.1201H349.7" stroke="#D5DBE6" stroke-width="3.5" stroke-linecap="round" stroke-linejoin="round"/>
<path d="M351.45 107.62H358.45" stroke="#D5DBE6" stroke-width="3.5" stroke-linecap="round" stroke-linejoin="round"/>
<rect x="272.45" y="54.8701" width="123" height="123" rx="61.5" stroke="#D8E7F2" stroke-opacity="0.07"/>
</g>
</g>
</g>
<defs>
<filter id="filter0_i_3_375" x="453.49" y="10.46" width="53.02" height="52.0701" filterUnits="userSpaceOnUse" color-interpolation-filters="sRGB">
<feFlood flood-opacity="0" result="BackgroundImageFix"/>
<feBlend mode="normal" in="SourceGraphic" in2="BackgroundImageFix" result="shape"/>
<feColorMatrix in="SourceAlpha" type="matrix" values="0 0 0 0 0 0 0 0 0 0 0 0 0 0 0 0 0 0 127 0" result="hardAlpha"/>
<feOffset dy="1"/>
<feGaussianBlur stdDeviation="0.5"/>
<feComposite in2="hardAlpha" operator="arithmetic" k2="-1" k3="1"/>
<feColorMatrix type="matrix" values="0 0 0 0 0.811765 0 0 0 0 0.905882 0 0 0 0 1 0 0 0 0.2 0"/>
<feBlend mode="normal" in2="shape" result="effect1_innerShadow_3_375"/>
</filter>
<filter id="filter1_f_3_375" x="513.055" y="178.075" width="55.89" height="53.8499" filterUnits="userSpaceOnUse" color-interpolation-filters="sRGB">
<feFlood flood-opacity="0" result="BackgroundImageFix"/>
<feBlend mode="normal" in="SourceGraphic" in2="BackgroundImageFix" result="shape"/>
<feGaussianBlur stdDeviation="0.2275" result="effect1_foregroundBlur_3_375"/>
</filter>
<filter id="filter2_i_3_375" x="513.51" y="178.53" width="54.98" height="53.9299" filterUnits="userSpaceOnUse" color-interpolation-filters="sRGB">
<feFlood flood-opacity="0" result="BackgroundImageFix"/>
<feBlend mode="normal" in="SourceGraphic" in2="BackgroundImageFix" result="shape"/>
<feColorMatrix in="SourceAlpha" type="matrix" values="0 0 0 0 0 0 0 0 0 0 0 0 0 0 0 0 0 0 127 0" result="hardAlpha"/>
<feOffset dy="1"/>
<feGaussianBlur stdDeviation="0.5"/>
<feComposite in2="hardAlpha" operator="arithmetic" k2="-1" k3="1"/>
<feColorMatrix type="matrix" values="0 0 0 0 0.811765 0 0 0 0 0.905882 0 0 0 0 1 0 0 0 0.2 0"/>
<feBlend mode="normal" in2="shape" result="effect1_innerShadow_3_375"/>
</filter>
<filter id="filter3_i_3_375" x="24.49" y="36.46" width="53.02" height="52.0701" filterUnits="userSpaceOnUse" color-interpolation-filters="sRGB">
<feFlood flood-opacity="0" result="BackgroundImageFix"/>
<feBlend mode="normal" in="SourceGraphic" in2="BackgroundImageFix" result="shape"/>
<feColorMatrix in="SourceAlpha" type="matrix" values="0 0 0 0 0 0 0 0 0 0 0 0 0 0 0 0 0 0 127 0" result="hardAlpha"/>
<feOffset dy="1"/>
<feGaussianBlur stdDeviation="0.5"/>
<feComposite in2="hardAlpha" operator="arithmetic" k2="-1" k3="1"/>
<feColorMatrix type="matrix" values="0 0 0 0 0.811765 0 0 0 0 0.905882 0 0 0 0 1 0 0 0 0.2 0"/>
<feBlend mode="normal" in2="shape" result="effect1_innerShadow_3_375"/>
</filter>
<filter id="filter4_i_3_375" x="186.49" y="174.46" width="53.02" height="52.0701" filterUnits="userSpaceOnUse" color-interpolation-filters="sRGB">
<feFlood flood-opacity="0" result="BackgroundImageFix"/>
<feBlend mode="normal" in="SourceGraphic" in2="BackgroundImageFix" result="shape"/>
<feColorMatrix in="SourceAlpha" type="matrix" values="0 0 0 0 0 0 0 0 0 0 0 0 0 0 0 0 0 0 127 0" result="hardAlpha"/>
<feOffset dy="1"/>
<feGaussianBlur stdDeviation="0.5"/>
<feComposite in2="hardAlpha" operator="arithmetic" k2="-1" k3="1"/>
<feColorMatrix type="matrix" values="0 0 0 0 0.811765 0 0 0 0 0.905882 0 0 0 0 1 0 0 0 0.2 0"/>
<feBlend mode="normal" in2="shape" result="effect1_innerShadow_3_375"/>
</filter>
<filter id="filter5_f_3_375" x="141.055" y="35.075" width="55.89" height="53.8499" filterUnits="userSpaceOnUse" color-interpolation-filters="sRGB">
<feFlood flood-opacity="0" result="BackgroundImageFix"/>
<feBlend mode="normal" in="SourceGraphic" in2="BackgroundImageFix" result="shape"/>
<feGaussianBlur stdDeviation="0.2275" result="effect1_foregroundBlur_3_375"/>
</filter>
<filter id="filter6_i_3_375" x="141.51" y="35.53" width="54.98" height="53.9299" filterUnits="userSpaceOnUse" color-interpolation-filters="sRGB">
<feFlood flood-opacity="0" result="BackgroundImageFix"/>
<feBlend mode="normal" in="SourceGraphic" in2="BackgroundImageFix" result="shape"/>
<feColorMatrix in="SourceAlpha" type="matrix" values="0 0 0 0 0 0 0 0 0 0 0 0 0 0 0 0 0 0 127 0" result="hardAlpha"/>
<feOffset dy="1"/>
<feGaussianBlur stdDeviation="0.5"/>
<feComposite in2="hardAlpha" operator="arithmetic" k2="-1" k3="1"/>
<feColorMatrix type="matrix" values="0 0 0 0 0.811765 0 0 0 0 0.905882 0 0 0 0 1 0 0 0 0.2 0"/>
<feBlend mode="normal" in2="shape" result="effect1_innerShadow_3_375"/>
</filter>
<filter id="filter7_f_3_375" x="609.055" y="46.075" width="55.89" height="53.8499" filterUnits="userSpaceOnUse" color-interpolation-filters="sRGB">
<feFlood flood-opacity="0" result="BackgroundImageFix"/>
<feBlend mode="normal" in="SourceGraphic" in2="BackgroundImageFix" result="shape"/>
<feGaussianBlur stdDeviation="0.2275" result="effect1_foregroundBlur_3_375"/>
</filter>
<filter id="filter8_i_3_375" x="609.51" y="46.53" width="54.98" height="53.9299" filterUnits="userSpaceOnUse" color-interpolation-filters="sRGB">
<feFlood flood-opacity="0" result="BackgroundImageFix"/>
<feBlend mode="normal" in="SourceGraphic" in2="BackgroundImageFix" result="shape"/>
<feColorMatrix in="SourceAlpha" type="matrix" values="0 0 0 0 0 0 0 0 0 0 0 0 0 0 0 0 0 0 127 0" result="hardAlpha"/>
<feOffset dy="1"/>
<feGaussianBlur stdDeviation="0.5"/>
<feComposite in2="hardAlpha" operator="arithmetic" k2="-1" k3="1"/>
<feColorMatrix type="matrix" values="0 0 0 0 0.811765 0 0 0 0 0.905882 0 0 0 0 1 0 0 0 0.2 0"/>
<feBlend mode="normal" in2="shape" result="effect1_innerShadow_3_375"/>
</filter>
<filter id="filter9_i_3_375" x="288" y="79.98" width="54" height="53" filterUnits="userSpaceOnUse" color-interpolation-filters="sRGB">
<feFlood flood-opacity="0" result="BackgroundImageFix"/>
<feBlend mode="normal" in="SourceGraphic" in2="BackgroundImageFix" result="shape"/>
<feColorMatrix in="SourceAlpha" type="matrix" values="0 0 0 0 0 0 0 0 0 0 0 0 0 0 0 0 0 0 127 0" result="hardAlpha"/>
<feOffset dy="1"/>
<feGaussianBlur stdDeviation="0.5"/>
<feComposite in2="hardAlpha" operator="arithmetic" k2="-1" k3="1"/>
<feColorMatrix type="matrix" values="0 0 0 0 0.811765 0 0 0 0 0.905882 0 0 0 0 1 0 0 0 0.2 0"/>
<feBlend mode="normal" in2="shape" result="effect1_innerShadow_3_375"/>
</filter>
<filter id="filter10_f_3_375" x="26.055" y="152.075" width="55.89" height="53.8499" filterUnits="userSpaceOnUse" color-interpolation-filters="sRGB">
<feFlood flood-opacity="0" result="BackgroundImageFix"/>
<feBlend mode="normal" in="SourceGraphic" in2="BackgroundImageFix" result="shape"/>
<feGaussianBlur stdDeviation="0.2275" result="effect1_foregroundBlur_3_375"/>
</filter>
<filter id="filter11_i_3_375" x="26.51" y="152.53" width="54.98" height="53.9299" filterUnits="userSpaceOnUse" color-interpolation-filters="sRGB">
<feFlood flood-opacity="0" result="BackgroundImageFix"/>
<feBlend mode="normal" in="SourceGraphic" in2="BackgroundImageFix" result="shape"/>
<feColorMatrix in="SourceAlpha" type="matrix" values="0 0 0 0 0 0 0 0 0 0 0 0 0 0 0 0 0 0 127 0" result="hardAlpha"/>
<feOffset dy="1"/>
<feGaussianBlur stdDeviation="0.5"/>
<feComposite in2="hardAlpha" operator="arithmetic" k2="-1" k3="1"/>
<feColorMatrix type="matrix" values="0 0 0 0 0.811765 0 0 0 0 0.905882 0 0 0 0 1 0 0 0 0.2 0"/>
<feBlend mode="normal" in2="shape" result="effect1_innerShadow_3_375"/>
</filter>
<filter id="filter13_di_3_375" x="257.95" y="47.3701" width="152" height="152" filterUnits="userSpaceOnUse" color-interpolation-filters="sRGB">
<feFlood flood-opacity="0" result="BackgroundImageFix"/>
<feColorMatrix in="SourceAlpha" type="matrix" values="0 0 0 0 0 0 0 0 0 0 0 0 0 0 0 0 0 0 127 0" result="hardAlpha"/>
<feOffset dy="7"/>
<feGaussianBlur stdDeviation="7"/>
<feComposite in2="hardAlpha" operator="out"/>
<feColorMatrix type="matrix" values="0 0 0 0 0.65098 0 0 0 0 0.854902 0 0 0 0 1 0 0 0 0.31 0"/>
<feBlend mode="normal" in2="BackgroundImageFix" result="effect1_dropShadow_3_375"/>
<feBlend mode="normal" in="SourceGraphic" in2="effect1_dropShadow_3_375" result="shape"/>
<feColorMatrix in="SourceAlpha" type="matrix" values="0 0 0 0 0 0 0 0 0 0 0 0 0 0 0 0 0 0 127 0" result="hardAlpha"/>
<feOffset dy="2"/>
<feGaussianBlur stdDeviation="0.5"/>
<feComposite in2="hardAlpha" operator="arithmetic" k2="-1" k3="1"/>
<feColorMatrix type="matrix" values="0 0 0 0 0.811765 0 0 0 0 0.905882 0 0 0 0 1 0 0 0 0.2 0"/>
<feBlend mode="normal" in2="shape" result="effect2_innerShadow_3_375"/>
</filter>
<radialGradient id="paint0_radial_3_375" cx="0" cy="0" r="1" gradientUnits="userSpaceOnUse" gradientTransform="translate(363 126.5) scale(363 126.5)">
<stop stop-color="#10131C"/>
<stop offset="1" stop-color="#10131C" stop-opacity="0"/>
</radialGradient>
<clipPath id="clip0_3_375">
<rect width="726" height="253" fill="white"/>
</clipPath>
<clipPath id="clip1_3_375">
<rect x="271.95" y="54.3701" width="124" height="124" rx="62" fill="white"/>
</clipPath>
</defs>
</svg>
