<svg width="39" height="39" viewBox="0 0 39 39" fill="none" xmlns="http://www.w3.org/2000/svg">
<path d="M28.1416 17.2041L20.3291 25.0166C20.2202 25.1258 20.0909 25.2125 19.9484 25.2716C19.806 25.3308 19.6533 25.3612 19.499 25.3612C19.3448 25.3612 19.1921 25.3308 19.0496 25.2716C18.9072 25.2125 18.7778 25.1258 18.6689 25.0166L10.8564 17.2041C10.6363 16.9839 10.5126 16.6853 10.5126 16.374C10.5126 16.0626 10.6363 15.7641 10.8564 15.5439C11.0766 15.3238 11.3752 15.2001 11.6865 15.2001C11.9979 15.2001 12.2965 15.3238 12.5166 15.5439L19.5 22.5273L26.4834 15.5429C26.7036 15.3228 27.0021 15.1991 27.3135 15.1991C27.6248 15.1991 27.9234 15.3228 28.1436 15.5429C28.3637 15.7631 28.4874 16.0617 28.4874 16.373C28.4874 16.6843 28.3637 16.9829 28.1436 17.2031L28.1416 17.2041Z" fill="#B8C7D9" fill-opacity="0.5"/>
</svg>
