<svg width="24" height="24" viewBox="0 0 24 24" fill="none" xmlns="http://www.w3.org/2000/svg">
<path d="M21 12.75C20.618 17.37 16.718 21 12 21C7.029 21 3 16.971 3 12C3 7.282 6.63 3.382 11.25 3" stroke="#D5DBE6" stroke-width="1.5" stroke-linecap="round" stroke-linejoin="round"/>
<path d="M12 6.75V12H17.25" stroke="#D5DBE6" stroke-width="1.5" stroke-linecap="round" stroke-linejoin="round"/>
<path d="M13.875 3.375C13.875 2.754 14.379 2.25 15 2.25C15.621 2.25 16.125 2.754 16.125 3.375C16.125 3.996 15.621 4.5 15 4.5C14.379 4.5 13.875 3.996 13.875 3.375Z" fill="#D5DBE6"/>
<path d="M17.25 5.625C17.25 5.004 17.754 4.5 18.375 4.5C18.996 4.5 19.5 5.004 19.5 5.625C19.5 6.246 18.996 6.75 18.375 6.75C17.754 6.75 17.25 6.246 17.25 5.625Z" fill="#D5DBE6"/>
<path d="M19.5 9C19.5 8.379 20.004 7.875 20.625 7.875C21.246 7.875 21.75 8.379 21.75 9C21.75 9.621 21.246 10.125 20.625 10.125C20.004 10.125 19.5 9.621 19.5 9Z" fill="#D5DBE6"/>
</svg>
