<svg width="17" height="17" viewBox="0 0 17 17" fill="none" xmlns="http://www.w3.org/2000/svg">
<path d="M5.84375 10.0939C5.84375 7.45326 7.98434 5.31268 10.625 5.31268C10.7121 5.31268 10.7993 5.31268 10.8864 5.31976C10.285 3.63322 8.79113 2.42339 7.01605 2.18681C5.24096 1.94951 3.48217 2.72372 2.45934 4.19351C1.4358 5.66331 1.31963 7.58147 2.15759 9.16389L1.61571 11.0077C1.56117 11.194 1.61288 11.3951 1.7503 11.5326C1.88771 11.67 2.08888 11.7217 2.27517 11.6671L4.11684 11.1231C4.73167 11.4525 5.41238 11.6431 6.10938 11.6799C5.93159 11.1699 5.84163 10.6337 5.84375 10.0939Z" fill="#D5DBE6"/>
<path d="M7.96875 9.29688C7.96875 8.857 8.32575 8.5 8.76562 8.5C9.2055 8.5 9.5625 8.857 9.5625 9.29688C9.5625 9.73675 9.2055 10.0938 8.76562 10.0938C8.32575 10.0938 7.96875 9.73675 7.96875 9.29688Z" fill="#D5DBE6"/>
<path d="M11.6875 9.29688C11.6875 8.857 12.0445 8.5 12.4844 8.5C12.9243 8.5 13.2812 8.857 13.2812 9.29688C13.2812 9.73675 12.9243 10.0938 12.4844 10.0938C12.0445 10.0938 11.6875 9.73675 11.6875 9.29688Z" fill="#D5DBE6"/>
<path d="M10.6251 14.8749C8.47605 14.8741 6.59117 13.4384 6.01884 11.3665C5.44651 9.29389 6.32767 7.09452 8.17217 5.99094C10.0174 4.88735 12.3719 5.15014 13.9274 6.63339C15.4829 8.11735 15.8576 10.4563 14.8425 12.3518L15.3844 14.1949C15.439 14.3811 15.3873 14.583 15.2498 14.7204C15.1124 14.8579 14.9113 14.9089 14.725 14.8543L12.8833 14.3103C12.1891 14.6822 11.4128 14.8763 10.6251 14.8749Z" stroke="#D5DBE6" stroke-width="1.0625" stroke-linecap="round" stroke-linejoin="round"/>
<path d="M6.11292 11.6799C5.41592 11.6431 4.73592 11.4525 4.12108 11.1231L2.27729 11.665C2.091 11.7196 1.88983 11.6678 1.75242 11.5304C1.615 11.393 1.56329 11.1918 1.61783 11.0056L2.15829 9.16389C1.31962 7.58147 1.43579 5.66331 2.45933 4.19351C3.48217 2.72372 5.24096 1.94951 7.01604 2.18681C8.79112 2.42339 10.285 3.63322 10.8864 5.31976" stroke="#D5DBE6" stroke-width="1.0625" stroke-linecap="round" stroke-linejoin="round"/>
</svg>
