<svg width="17" height="17" viewBox="0 0 17 17" fill="none" xmlns="http://www.w3.org/2000/svg">
<g clip-path="url(#clip0_3_547)">
<path d="M3.18748 6.64061C3.18748 4.43982 4.97106 2.65624 7.17185 2.65624C9.37263 2.65624 11.1562 4.43982 11.1562 6.64061C11.1562 8.84139 9.37263 10.625 7.17185 10.625C4.97106 10.625 3.18748 8.84139 3.18748 6.64061Z" fill="white" fill-opacity="0.2"/>
<path d="M3.18748 6.64061C3.18748 4.43982 4.97106 2.65624 7.17185 2.65624C9.37263 2.65624 11.1562 4.43982 11.1562 6.64061C11.1562 8.84139 9.37263 10.625 7.17185 10.625C4.97106 10.625 3.18748 8.84139 3.18748 6.64061Z" stroke="white" stroke-width="1.05" stroke-linecap="round" stroke-linejoin="round"/>
<path d="M1.59376 13.2812C2.95871 11.6577 4.88466 10.625 7.17187 10.625C9.45907 10.625 11.385 11.6577 12.75 13.2812" stroke="white" stroke-width="1.05" stroke-linecap="round" stroke-linejoin="round"/>
<path d="M13.2812 9.56237L14.3437 10.6249L16.4687 8.49988" stroke="white" stroke-width="1.05" stroke-linecap="round" stroke-linejoin="round"/>
</g>
<defs>
<clipPath id="clip0_3_547">
<rect width="16.8" height="16.8" fill="white" transform="scale(1.0119)"/>
</clipPath>
</defs>
</svg>
