<svg width="17" height="17" viewBox="0 0 17 17" fill="none" xmlns="http://www.w3.org/2000/svg">
<path d="M8.5 14.875C8.5 14.875 1.59375 11.1562 1.59375 6.77379C1.59375 4.79329 3.19954 3.1875 5.18004 3.1875C6.67958 3.1875 7.9645 4.00492 8.5 5.3125C9.0355 4.00492 10.3204 3.1875 11.8207 3.1875C13.8005 3.1875 15.4062 4.79329 15.4062 6.77379C15.4062 11.1562 8.5 14.875 8.5 14.875Z" fill="#D5DBE6"/>
<path d="M8.5 14.875C8.5 14.875 1.59375 11.1562 1.59375 6.77379C1.59375 4.79329 3.19954 3.1875 5.18004 3.1875C6.67958 3.1875 7.9645 4.00492 8.5 5.3125C9.0355 4.00492 10.3204 3.1875 11.8207 3.1875C13.8005 3.1875 15.4062 4.79329 15.4062 6.77379C15.4062 11.1562 8.5 14.875 8.5 14.875Z" stroke="#D5DBE6" stroke-width="1.0625" stroke-linecap="round" stroke-linejoin="round"/>
</svg>
