<svg width="24" height="24" viewBox="0 0 24 24" fill="none" xmlns="http://www.w3.org/2000/svg">
<path d="M12 6.75V8.25" stroke="#D5DBE6" stroke-width="1.5" stroke-linecap="round" stroke-linejoin="round"/>
<path d="M12 15.75V17.25" stroke="#D5DBE6" stroke-width="1.5" stroke-linecap="round" stroke-linejoin="round"/>
<path d="M3 12C3 7.029 7.029 3 12 3C16.971 3 21 7.029 21 12C21 16.971 16.971 21 12 21C7.029 21 3 16.971 3 12Z" stroke="#D5DBE6" stroke-width="1.5" stroke-linecap="round" stroke-linejoin="round"/>
<path d="M9.75 15.75H13.125C14.161 15.75 15 14.911 15 13.875C15 12.839 14.161 12 13.125 12H10.875C9.839 12 9 11.161 9 10.125C9 9.089 9.839 8.25 10.875 8.25H14.25" stroke="#D5DBE6" stroke-width="1.5" stroke-linecap="round" stroke-linejoin="round"/>
</svg>
