<svg width="17" height="17" viewBox="0 0 17 17" fill="none" xmlns="http://www.w3.org/2000/svg">
<path d="M2.81137 9.18637C2.71221 9.08721 2.65625 8.95192 2.65625 8.81167V2.65625H8.81167C8.95192 2.65625 9.08721 2.71221 9.18637 2.81137L15.7824 9.40737C15.9892 9.61421 15.9892 9.95067 15.7824 10.1582L10.1603 15.7824C9.95279 15.9892 9.61633 15.9892 9.40879 15.7824L2.81137 9.18637Z" fill="#D5DBE6"/>
<path d="M2.81137 9.18637C2.71221 9.08721 2.65625 8.95192 2.65625 8.81167V2.65625H8.81167C8.95192 2.65625 9.08721 2.71221 9.18637 2.81137L15.7824 9.40737C15.9892 9.61421 15.9892 9.95067 15.7824 10.1582L10.1603 15.7824C9.95279 15.9892 9.61633 15.9892 9.40879 15.7824L2.81137 9.18637Z" stroke="#D5DBE6" stroke-width="1.0625" stroke-linecap="round" stroke-linejoin="round"/>
<path d="M4.78125 5.57812C4.78125 5.13825 5.13825 4.78125 5.57812 4.78125C6.018 4.78125 6.375 5.13825 6.375 5.57812C6.375 6.018 6.018 6.375 5.57812 6.375C5.13825 6.375 4.78125 6.018 4.78125 5.57812Z" fill="#D5DBE6"/>
</svg>
