<svg width="40" height="40" viewBox="0 0 40 40" fill="none" xmlns="http://www.w3.org/2000/svg">
<g filter="url(#filter0_i_3_2534)">
<rect width="40" height="40" rx="8" fill="#04070D"/>
<path d="M14.5 26C14.224 26 14 25.776 14 25.5V14.5C14 14.224 14.224 14 14.5 14H25.5C25.776 14 26 14.224 26 14.5V25.5C26 25.776 25.776 26 25.5 26H14.5Z" stroke="#D5DBE6" stroke-linecap="round" stroke-linejoin="round"/>
<path d="M19.5 19V23" stroke="#D5DBE6" stroke-linecap="round" stroke-linejoin="round"/>
<path d="M17.5 19V23" stroke="#D5DBE6" stroke-linecap="round" stroke-linejoin="round"/>
<path d="M19.5 20.75C19.5 19.7833 20.2833 19 21.25 19C22.2167 19 23 19.7833 23 20.75V23" stroke="#D5DBE6" stroke-linecap="round" stroke-linejoin="round"/>
<path d="M16.75 17.25C16.75 16.836 17.086 16.5 17.5 16.5C17.914 16.5 18.25 16.836 18.25 17.25C18.25 17.664 17.914 18 17.5 18C17.086 18 16.75 17.664 16.75 17.25Z" fill="#D5DBE6"/>
</g>
<defs>
<filter id="filter0_i_3_2534" x="0" y="0" width="40" height="41" filterUnits="userSpaceOnUse" color-interpolation-filters="sRGB">
<feFlood flood-opacity="0" result="BackgroundImageFix"/>
<feBlend mode="normal" in="SourceGraphic" in2="BackgroundImageFix" result="shape"/>
<feColorMatrix in="SourceAlpha" type="matrix" values="0 0 0 0 0 0 0 0 0 0 0 0 0 0 0 0 0 0 127 0" result="hardAlpha"/>
<feOffset dy="1"/>
<feGaussianBlur stdDeviation="0.5"/>
<feComposite in2="hardAlpha" operator="arithmetic" k2="-1" k3="1"/>
<feColorMatrix type="matrix" values="0 0 0 0 0.811765 0 0 0 0 0.905882 0 0 0 0 1 0 0 0 0.2 0"/>
<feBlend mode="normal" in2="shape" result="effect1_innerShadow_3_2534"/>
</filter>
</defs>
</svg>
