<svg width="20" height="20" viewBox="0 0 20 20" fill="none" xmlns="http://www.w3.org/2000/svg">
<path d="M3.30783 12.0575L9.55783 5.80746C9.61588 5.74935 9.68481 5.70325 9.76068 5.6718C9.83656 5.64035 9.91788 5.62416 10 5.62416C10.0822 5.62416 10.1635 5.64035 10.2394 5.6718C10.3152 5.70325 10.3842 5.74935 10.4422 5.80746L16.6922 12.0575C16.8095 12.1747 16.8754 12.3338 16.8754 12.4997C16.8754 12.6655 16.8095 12.8246 16.6922 12.9418C16.5749 13.0591 16.4159 13.125 16.25 13.125C16.0842 13.125 15.9251 13.0591 15.8078 12.9418L10 7.13325L4.19221 12.9418C4.13414 12.9999 4.0652 13.046 3.98933 13.0774C3.91346 13.1088 3.83214 13.125 3.75002 13.125C3.6679 13.125 3.58658 13.1088 3.51071 13.0774C3.43484 13.046 3.3659 12.9999 3.30783 12.9418C3.24976 12.8838 3.2037 12.8148 3.17227 12.739C3.14085 12.6631 3.12467 12.5818 3.12467 12.4997C3.12467 12.4175 3.14085 12.3362 3.17227 12.2603C3.2037 12.1845 3.24976 12.1155 3.30783 12.0575Z" fill="#D5DBE6"/>
</svg>
