<svg width="17" height="17" viewBox="0 0 17 17" fill="none" xmlns="http://www.w3.org/2000/svg">
<path d="M8.5 14.875C12.0211 14.875 14.875 12.0211 14.875 8.5C14.875 4.97887 12.0211 2.125 8.5 2.125V5.84375C9.96696 5.84375 11.1562 7.03304 11.1562 8.5C11.1562 9.96696 9.96696 11.1562 8.5 11.1562V14.875Z" fill="#D5DBE6"/>
<path d="M8.5 11.1562V14.875" stroke="#D5DBE6" stroke-width="1.0625" stroke-linecap="round" stroke-linejoin="round"/>
<path d="M2.9786 5.3125C1.53573 7.8115 1.95152 10.9671 3.99152 13.0078C6.03152 15.0478 9.18785 15.4636 11.6869 14.0208C14.1851 12.5786 15.4042 9.63758 14.6576 6.85029C13.911 4.06371 11.3858 2.125 8.50006 2.125V5.84375C9.7021 5.84375 10.7547 6.65196 11.0656 7.81292C11.3766 8.97387 10.8687 10.1993 9.82748 10.8007C8.78623 11.4013 7.47156 11.2285 6.62156 10.3785C5.77156 9.52779 5.59802 8.21312 6.1994 7.17187L2.9786 5.3125Z" stroke="#D5DBE6" stroke-width="1.0625" stroke-linecap="round" stroke-linejoin="round"/>
<path d="M5.93371 9.1875L2.34104 10.1494" stroke="#D5DBE6" stroke-width="1.0625" stroke-linecap="round" stroke-linejoin="round"/>
</svg>
