<svg width="140" height="25" viewBox="0 0 140 25" fill="none" xmlns="http://www.w3.org/2000/svg">
<rect width="140" height="24.8" rx="12.4" fill="#10131C"/>
<path d="M120.875 11.4524C120.875 8.86364 122.974 6.76489 125.562 6.76489C128.151 6.76489 130.25 8.86364 130.25 11.4524C130.25 14.0411 128.151 16.1399 125.562 16.1399C122.974 16.1399 120.875 14.0411 120.875 11.4524Z" fill="white" fill-opacity="0.2"/>
<path d="M120.875 11.4524C120.875 8.86364 122.974 6.76489 125.562 6.76489C128.151 6.76489 130.25 8.86364 130.25 11.4524C130.25 14.0411 128.151 16.1399 125.562 16.1399C122.974 16.1399 120.875 14.0411 120.875 11.4524Z" stroke="white" stroke-width="0.9375" stroke-linecap="round" stroke-linejoin="round"/>
<path d="M128.877 14.7668L132.125 18.015" stroke="white" stroke-width="0.9375" stroke-linecap="round" stroke-linejoin="round"/>
<rect x="0.5" y="0.5" width="139" height="23.8" rx="11.9" stroke="#D8E7F2" stroke-opacity="0.07"/>
</svg>
