<svg width="17" height="17" viewBox="0 0 17 17" fill="none" xmlns="http://www.w3.org/2000/svg">
<path d="M8.5 12.5566L12.1337 14.7914C12.3264 14.9083 12.5708 14.8977 12.7528 14.7645C12.9349 14.6313 13.0185 14.4018 12.9653 14.1822L11.9772 10.013L15.2107 7.22358C15.3793 7.07554 15.4438 6.84179 15.3751 6.62858C15.3057 6.41467 15.1165 6.26308 14.8927 6.24254L10.6491 5.89687L9.01425 1.93942C8.92854 1.73046 8.72596 1.59375 8.5 1.59375C8.27475 1.59375 8.07146 1.73046 7.98575 1.93942L6.35092 5.89687L2.10729 6.24254C1.88204 6.26167 1.69079 6.41467 1.62138 6.62929C1.55196 6.84392 1.61854 7.07979 1.78925 7.22712L5.02279 10.0158L4.03467 14.1822C3.98154 14.4018 4.06513 14.6313 4.24717 14.7645C4.42921 14.8977 4.67358 14.9083 4.86625 14.7914L8.5 12.5566Z" fill="#D5DBE6"/>
<path d="M8.5 12.5566L12.1338 14.7914C12.3264 14.9083 12.5708 14.8977 12.7528 14.7645C12.9349 14.6313 13.0185 14.4018 12.9653 14.1822L11.9772 10.013L15.2107 7.22358C15.3793 7.07554 15.4438 6.84179 15.3751 6.62858C15.3057 6.41467 15.1165 6.26308 14.8927 6.24254L10.6491 5.89687L9.01425 1.93942C8.92854 1.73046 8.72596 1.59375 8.5 1.59375C8.27475 1.59375 8.07146 1.73046 7.98575 1.93942L6.35092 5.89687L2.10729 6.24254C1.88204 6.26167 1.69079 6.41467 1.62138 6.62929C1.55196 6.84392 1.61854 7.07979 1.78925 7.22712L5.02279 10.0158L4.03467 14.1822C3.98154 14.4018 4.06513 14.6313 4.24717 14.7645C4.42921 14.8977 4.67358 14.9083 4.86625 14.7914L8.5 12.5566Z" stroke="#D5DBE6" stroke-width="1.0625" stroke-linecap="round" stroke-linejoin="round"/>
</svg>
