<svg width="125" height="64" viewBox="0 0 125 64" fill="none" xmlns="http://www.w3.org/2000/svg">
<g filter="url(#filter0_i_3_745)">
<rect width="125" height="64" rx="8" fill="#10131C"/>
<g opacity="0.5">
<path d="M14.5 39.5C14.5 36.7383 16.7383 34.5 19.5 34.5C22.2617 34.5 24.5 36.7383 24.5 39.5C24.5 42.2617 22.2617 44.5 19.5 44.5C16.7383 44.5 14.5 42.2617 14.5 39.5Z" stroke="#D5DBE6" stroke-width="2.5" stroke-linecap="round" stroke-linejoin="round"/>
<path d="M44.5 19.5L49.5 24.5L44.5 29.5" stroke="#D5DBE6" stroke-width="2.5" stroke-linecap="round" stroke-linejoin="round"/>
<path d="M24.5 39.5C38.25 39.5 30.75 24.5 44.5 24.5H49.5" stroke="#D5DBE6" stroke-width="2.5" stroke-linecap="round" stroke-linejoin="round"/>
</g>
<rect x="62" y="13" width="1" height="38" fill="#D8E7F2" fill-opacity="0.07"/>
<g opacity="0.5">
<path d="M90.5 23.25C90.5 21.87 91.62 20.75 93 20.75C94.38 20.75 95.5 21.87 95.5 23.25C95.5 24.63 94.38 25.75 93 25.75C91.62 25.75 90.5 24.63 90.5 23.25Z" stroke="#D5DBE6" stroke-width="2.5" stroke-linecap="round" stroke-linejoin="round"/>
<path d="M93 33.25C93 31.87 94.12 30.75 95.5 30.75C96.88 30.75 98 31.87 98 33.25C98 34.63 96.88 35.75 95.5 35.75C94.12 35.75 93 34.63 93 33.25Z" stroke="#D5DBE6" stroke-width="2.5" stroke-linecap="round" stroke-linejoin="round"/>
<path d="M91.75 45.75H84.25C83.56 45.75 83 45.19 83 44.5V38.845L78.69 36.8716C78.0983 36.575 77.8417 35.87 78.1017 35.2616L81.75 28.25C81.75 22.3716 85.845 17.2866 91.5883 16.0366C97.3317 14.785 103.172 17.705 105.617 23.05C108.062 28.395 106.452 34.7233 101.75 38.25L103 48.25" stroke="#D5DBE6" stroke-width="2.5" stroke-linecap="round" stroke-linejoin="round"/>
<path d="M93 20.7501V15.8118" stroke="#D5DBE6" stroke-width="2.5" stroke-linecap="round" stroke-linejoin="round"/>
<path d="M106.497 25.75H101.75L97.1 31.33" stroke="#D5DBE6" stroke-width="2.5" stroke-linecap="round" stroke-linejoin="round"/>
</g>
</g>
<defs>
<filter id="filter0_i_3_745" x="0" y="0" width="125" height="65" filterUnits="userSpaceOnUse" color-interpolation-filters="sRGB">
<feFlood flood-opacity="0" result="BackgroundImageFix"/>
<feBlend mode="normal" in="SourceGraphic" in2="BackgroundImageFix" result="shape"/>
<feColorMatrix in="SourceAlpha" type="matrix" values="0 0 0 0 0 0 0 0 0 0 0 0 0 0 0 0 0 0 127 0" result="hardAlpha"/>
<feOffset dy="1"/>
<feGaussianBlur stdDeviation="0.5"/>
<feComposite in2="hardAlpha" operator="arithmetic" k2="-1" k3="1"/>
<feColorMatrix type="matrix" values="0 0 0 0 0.811765 0 0 0 0 0.905882 0 0 0 0 1 0 0 0 0.2 0"/>
<feBlend mode="normal" in2="shape" result="effect1_innerShadow_3_745"/>
</filter>
</defs>
</svg>
