<svg width="32" height="32" viewBox="0 0 32 32" fill="none" xmlns="http://www.w3.org/2000/svg">
<path d="M14.5 22.5C14.5 21.672 15.172 21 16 21C16.828 21 17.5 21.672 17.5 22.5C17.5 23.328 16.828 24 16 24C15.172 24 14.5 23.328 14.5 22.5Z" fill="#D5DBE6"/>
<path d="M16 18V17C18.2093 17 20 15.432 20 13.5C20 11.568 18.2093 10 16 10C13.7907 10 12 11.568 12 13.5V14" stroke="#D5DBE6" stroke-width="2" stroke-linecap="round" stroke-linejoin="round"/>
<path d="M4 16C4 9.372 9.372 4 16 4C22.628 4 28 9.372 28 16C28 22.628 22.628 28 16 28C9.372 28 4 22.628 4 16Z" stroke="#D5DBE6" stroke-width="2" stroke-linecap="round" stroke-linejoin="round"/>
</svg>
