<svg width="124" height="124" viewBox="0 0 124 124" fill="none" xmlns="http://www.w3.org/2000/svg">
<g filter="url(#filter0_i_3_686)">
<g clip-path="url(#clip0_3_686)">
<rect width="124" height="124" rx="62" fill="#04070D"/>
<g opacity="0.8">
<path d="M52.4333 71.5643L40.3817 67.124C39.7027 66.8743 39.25 66.2257 39.25 65.5C39.25 64.7743 39.7027 64.1257 40.3817 63.8737L52.4333 59.4333L56.8737 47.3817C57.1257 46.7027 57.7743 46.25 58.5 46.25C59.2257 46.25 59.8743 46.7027 60.124 47.3817L64.5643 59.4333L76.616 63.8737C77.2973 64.1257 77.75 64.7743 77.75 65.5C77.75 66.2257 77.2973 66.8743 76.616 67.124L64.5643 71.5643L60.124 83.616C59.8743 84.2973 59.2257 84.75 58.5 84.75C57.7743 84.75 57.1257 84.2973 56.8737 83.616L52.4333 71.5643Z" fill="#D5DBE6" fill-opacity="0.2"/>
<path d="M52.4333 71.5643L40.3817 67.124C39.7027 66.8743 39.25 66.2257 39.25 65.5C39.25 64.7743 39.7027 64.1257 40.3817 63.8737L52.4333 59.4333L56.8737 47.3817C57.1257 46.7027 57.7743 46.25 58.5 46.25C59.2257 46.25 59.8743 46.7027 60.124 47.3817L64.5643 59.4333L76.616 63.8737C77.2973 64.1257 77.75 64.7743 77.75 65.5C77.75 66.2257 77.2973 66.8743 76.616 67.124L64.5643 71.5643L60.124 83.616C59.8743 84.2973 59.2257 84.75 58.5 84.75C57.7743 84.75 57.1257 84.2973 56.8737 83.616L52.4333 71.5643Z" stroke="#D5DBE6" stroke-width="2.33333" stroke-linecap="round" stroke-linejoin="round"/>
<path d="M72.5 37.5V48" stroke="#D5DBE6" stroke-width="2.33333" stroke-linecap="round" stroke-linejoin="round"/>
<path d="M83 49.75V56.75" stroke="#D5DBE6" stroke-width="2.33333" stroke-linecap="round" stroke-linejoin="round"/>
<path d="M67.25 42.75H77.75" stroke="#D5DBE6" stroke-width="2.33333" stroke-linecap="round" stroke-linejoin="round"/>
<path d="M79.5 53.25H86.5" stroke="#D5DBE6" stroke-width="2.33333" stroke-linecap="round" stroke-linejoin="round"/>
</g>
<rect x="0.5" y="0.5" width="123" height="123" rx="61.5" stroke="#D8E7F2" stroke-opacity="0.07"/>
</g>
</g>
<defs>
<filter id="filter0_i_3_686" x="0" y="0" width="124" height="125" filterUnits="userSpaceOnUse" color-interpolation-filters="sRGB">
<feFlood flood-opacity="0" result="BackgroundImageFix"/>
<feBlend mode="normal" in="SourceGraphic" in2="BackgroundImageFix" result="shape"/>
<feColorMatrix in="SourceAlpha" type="matrix" values="0 0 0 0 0 0 0 0 0 0 0 0 0 0 0 0 0 0 127 0" result="hardAlpha"/>
<feOffset dy="2"/>
<feGaussianBlur stdDeviation="0.5"/>
<feComposite in2="hardAlpha" operator="arithmetic" k2="-1" k3="1"/>
<feColorMatrix type="matrix" values="0 0 0 0 0.811765 0 0 0 0 0.905882 0 0 0 0 1 0 0 0 0.2 0"/>
<feBlend mode="normal" in2="shape" result="effect1_innerShadow_3_686"/>
</filter>
<clipPath id="clip0_3_686">
<rect width="124" height="124" rx="62" fill="white"/>
</clipPath>
</defs>
</svg>
