<svg width="40" height="40" viewBox="0 0 40 40" fill="none" xmlns="http://www.w3.org/2000/svg">
<g filter="url(#filter0_i_3_2522)">
<rect width="40" height="40" rx="8" fill="#04070D"/>
<path d="M17 26C15.3433 26 14 24.6567 14 23V17C14 15.3433 15.3433 14 17 14H23C24.6567 14 26 15.3433 26 17V23C26 24.6567 24.6567 26 23 26H17Z" stroke="#D5DBE6" stroke-linecap="round" stroke-linejoin="round"/>
<path d="M17.5 20C17.5 18.6193 18.6193 17.5 20 17.5C21.3807 17.5 22.5 18.6193 22.5 20C22.5 21.3807 21.3807 22.5 20 22.5C18.6193 22.5 17.5 21.3807 17.5 20Z" stroke="#D5DBE6" stroke-miterlimit="10"/>
<path d="M22.5 16.75C22.5 16.336 22.836 16 23.25 16C23.664 16 24 16.336 24 16.75C24 17.164 23.664 17.5 23.25 17.5C22.836 17.5 22.5 17.164 22.5 16.75Z" fill="#D5DBE6"/>
</g>
<defs>
<filter id="filter0_i_3_2522" x="0" y="0" width="40" height="41" filterUnits="userSpaceOnUse" color-interpolation-filters="sRGB">
<feFlood flood-opacity="0" result="BackgroundImageFix"/>
<feBlend mode="normal" in="SourceGraphic" in2="BackgroundImageFix" result="shape"/>
<feColorMatrix in="SourceAlpha" type="matrix" values="0 0 0 0 0 0 0 0 0 0 0 0 0 0 0 0 0 0 127 0" result="hardAlpha"/>
<feOffset dy="1"/>
<feGaussianBlur stdDeviation="0.5"/>
<feComposite in2="hardAlpha" operator="arithmetic" k2="-1" k3="1"/>
<feColorMatrix type="matrix" values="0 0 0 0 0.811765 0 0 0 0 0.905882 0 0 0 0 1 0 0 0 0.2 0"/>
<feBlend mode="normal" in2="shape" result="effect1_innerShadow_3_2522"/>
</filter>
</defs>
</svg>
