<svg width="44" height="44" viewBox="0 0 44 44" fill="none" xmlns="http://www.w3.org/2000/svg">
<g clip-path="url(#clip0_3_2875)">
<path fill-rule="evenodd" clip-rule="evenodd" d="M0.548809 21.7253C0.548809 33.7242 10.2758 43.4512 22.2741 43.4512C34.2736 43.4512 44 33.7242 44 21.7259C44 9.72638 34.273 0 22.2747 0C10.2758 0 0.548809 9.72697 0.548809 21.7253ZM24.5288 37.7139C22.1599 35.6882 20.6848 32.8347 20.6848 29.6732C20.6848 23.5275 26.2597 18.546 33.1374 18.546C34.8676 18.546 36.5146 18.8611 38.013 19.4308C36.8423 11.7302 30.1935 5.82881 22.1653 5.82881C19.8226 5.82881 17.5982 6.33124 15.5926 7.23384C16.4447 8.14951 16.9745 9.43681 16.9745 10.8626C16.9745 13.643 14.9582 15.8965 12.4704 15.8965C10.8002 15.8965 9.34227 14.8803 8.56454 13.3712C6.97304 15.9154 6.13138 18.8569 6.13622 21.8579C6.13622 30.7108 13.313 37.887 22.1653 37.887C22.968 37.887 23.757 37.8281 24.5282 37.7145L24.5288 37.7139Z" fill="white"/>
<mask id="mask0_3_2875" style="mask-type:luminance" maskUnits="userSpaceOnUse" x="0" y="0" width="44" height="44">
<path fill-rule="evenodd" clip-rule="evenodd" d="M0.548809 21.7253C0.548809 33.7242 10.2758 43.4512 22.2741 43.4512C34.2736 43.4512 44 33.7242 44 21.7259C44 9.72638 34.273 0 22.2747 0C10.2758 0 0.548809 9.72697 0.548809 21.7253ZM24.5288 37.7139C22.1599 35.6882 20.6848 32.8347 20.6848 29.6732C20.6848 23.5275 26.2597 18.546 33.1374 18.546C34.8676 18.546 36.5146 18.8611 38.013 19.4308C36.8423 11.7302 30.1935 5.82881 22.1653 5.82881C19.8226 5.82881 17.5982 6.33124 15.5926 7.23384C16.4447 8.14951 16.9745 9.43681 16.9745 10.8626C16.9745 13.643 14.9582 15.8965 12.4704 15.8965C10.8002 15.8965 9.34227 14.8803 8.56454 13.3712C6.97304 15.9154 6.13138 18.8569 6.13622 21.8579C6.13622 30.7108 13.313 37.887 22.1653 37.887C22.968 37.887 23.757 37.8281 24.5282 37.7145L24.5288 37.7139Z" fill="white"/>
</mask>
<g mask="url(#mask0_3_2875)">
<path d="M24.5288 37.7139L24.7607 39.2866L28.2171 38.7765L25.5622 36.5057L24.5288 37.7139ZM38.0124 19.4313L37.4476 20.9172L39.993 21.8864L39.5839 19.1929L38.0124 19.4313ZM15.5932 7.23383L14.9404 5.78421L12.9193 6.69394L14.4296 8.31718L15.5932 7.23383ZM8.56513 13.3712L9.97849 12.6429L8.69892 10.1592L7.21719 12.5281L8.56513 13.3712ZM22.2741 41.8612C11.1534 41.8612 2.13875 32.846 2.13875 21.7253H-1.04055C-1.04055 34.6024 9.39757 45.0411 22.2747 45.0411V41.8612H22.2741ZM42.4106 21.7253C42.4106 32.8466 33.3954 41.8612 22.2747 41.8612L22.2753 45.0405C35.1518 45.0405 45.5905 34.6024 45.5905 21.7253H42.4106ZM22.2747 1.59054C33.3954 1.59054 42.4101 10.6052 42.4101 21.7259H45.5899C45.5899 8.84935 35.1512 -1.58936 22.2747 -1.58936V1.59054ZM2.13875 21.7259C2.13875 10.6052 11.154 1.59054 22.2747 1.59054V-1.58936C9.39757 -1.58936 -1.04114 8.84935 -1.04114 21.7259H2.13875ZM19.0948 29.6738C19.0948 33.3514 20.815 36.6306 23.496 38.9227L25.5622 36.5069C23.5049 34.7475 22.2741 32.3192 22.2741 29.6738H19.0948ZM33.1374 16.9561C25.5545 16.9561 19.0948 22.487 19.0948 29.6738H22.2741C22.2741 24.5698 26.9655 20.1359 33.1374 20.1359V16.9561ZM38.5779 17.9455C36.8396 17.2876 34.9959 16.9524 33.1374 16.9561V20.1353C34.6738 20.1353 36.1299 20.4154 37.447 20.9166L38.5779 17.9455ZM22.1665 7.41816C29.3968 7.41816 35.3879 12.7338 36.4415 19.6698L39.5845 19.1923C38.2984 10.7259 30.9909 4.23886 22.1665 4.23886V7.41816ZM16.2461 8.68346C18.1074 7.84642 20.1256 7.4151 22.1665 7.41816V4.23946C19.5949 4.23946 17.1481 4.79124 14.941 5.7854L16.2461 8.68346ZM18.565 10.8626C18.565 9.04319 17.889 7.36702 16.7575 6.15108L14.4296 8.31718C15.0022 8.93318 15.3863 9.83043 15.3863 10.8626H18.565ZM12.4716 17.4864C15.9988 17.4864 18.565 14.3499 18.565 10.8626H15.3863C15.3863 12.936 13.9201 14.3071 12.4716 14.3071V17.4864ZM7.15297 14.099C8.1608 16.0552 10.1194 17.4864 12.4716 17.4864V14.3071C11.4834 14.3071 10.5255 13.7048 9.97849 12.6429L7.15297 14.099ZM7.72675 21.8579C7.72204 19.1549 8.48005 16.5053 9.91367 14.2138L7.21719 12.5281C5.46777 15.3252 4.54305 18.5588 4.54805 21.8579H7.72675ZM22.1665 36.2976C14.1918 36.2976 7.72675 29.8326 7.72675 21.8579H4.54805C4.54805 31.5884 12.4359 39.4769 22.1665 39.4769V36.2976ZM24.2969 36.1412C23.5916 36.2456 22.8795 36.2978 22.1665 36.2976V39.4769C23.0471 39.4769 23.914 39.4115 24.7619 39.2866L24.2969 36.1412Z" fill="white"/>
</g>
</g>
<defs>
<clipPath id="clip0_3_2875">
<rect width="44" height="44" fill="white" transform="matrix(0 1 -1 0 44 0)"/>
</clipPath>
</defs>
</svg>
