<svg width="84" height="84" viewBox="0 0 84 84" fill="none" xmlns="http://www.w3.org/2000/svg">
<g filter="url(#filter0_i_3_703)">
<g clip-path="url(#clip0_3_703)">
<rect width="84" height="84" rx="42" fill="#04070D"/>
<mask id="mask0_3_703" style="mask-type:alpha" maskUnits="userSpaceOnUse" x="18" y="18" width="48" height="48">
<g clip-path="url(#clip1_3_703)">
<path d="M34 36H26V58H34V36Z" fill="black"/>
<path d="M34 26H26V34H34V26Z" fill="black"/>
<path d="M46 32H38V40H46V32Z" fill="black"/>
<path d="M58 38H50V46H58V38Z" fill="black"/>
<path d="M58 48H50V58H58V48Z" fill="black"/>
<path d="M46 42H38V58H46V42Z" fill="black"/>
</g>
</mask>
<g mask="url(#mask0_3_703)">
<rect x="18" y="18" width="48" height="48" fill="#D5DBE6" fill-opacity="0.7"/>
</g>
<rect x="0.5" y="0.5" width="83" height="83" rx="41.5" stroke="#D8E7F2" stroke-opacity="0.07"/>
</g>
</g>
<defs>
<filter id="filter0_i_3_703" x="0" y="0" width="84" height="85" filterUnits="userSpaceOnUse" color-interpolation-filters="sRGB">
<feFlood flood-opacity="0" result="BackgroundImageFix"/>
<feBlend mode="normal" in="SourceGraphic" in2="BackgroundImageFix" result="shape"/>
<feColorMatrix in="SourceAlpha" type="matrix" values="0 0 0 0 0 0 0 0 0 0 0 0 0 0 0 0 0 0 127 0" result="hardAlpha"/>
<feOffset dy="2"/>
<feGaussianBlur stdDeviation="0.5"/>
<feComposite in2="hardAlpha" operator="arithmetic" k2="-1" k3="1"/>
<feColorMatrix type="matrix" values="0 0 0 0 0.811765 0 0 0 0 0.905882 0 0 0 0 1 0 0 0 0.2 0"/>
<feBlend mode="normal" in2="shape" result="effect1_innerShadow_3_703"/>
</filter>
<clipPath id="clip0_3_703">
<rect width="84" height="84" rx="42" fill="white"/>
</clipPath>
<clipPath id="clip1_3_703">
<rect width="48" height="48" fill="white" transform="translate(18 18)"/>
</clipPath>
</defs>
</svg>
