<svg width="17" height="17" viewBox="0 0 17 17" fill="none" xmlns="http://www.w3.org/2000/svg">
<path d="M8.5 8.57215V15.4061C8.41075 15.4054 8.32292 15.3828 8.245 15.3396L2.40125 12.1414C2.23125 12.0486 2.12571 11.8701 2.125 11.6768V5.32586C2.125 5.25077 2.14058 5.1764 2.17175 5.1084L8.5 8.57215Z" fill="#D5DBE6"/>
<path d="M2.17175 5.10791L8.5 8.57166L14.829 5.10791" stroke="#D5DBE6" stroke-width="1.0625" stroke-linecap="round" stroke-linejoin="round"/>
<path d="M8.755 1.66031L14.5988 4.85986C14.7688 4.95265 14.8743 5.13115 14.875 5.32452V11.6754C14.8743 11.8695 14.7688 12.0473 14.5988 12.1408L8.755 15.3404C8.59633 15.4268 8.40367 15.4268 8.245 15.3404L2.40125 12.1408C2.23125 12.0473 2.12571 11.8695 2.125 11.6754V5.32452C2.12571 5.13115 2.23125 4.95265 2.40125 4.85986L8.245 1.66031C8.40367 1.57319 8.59633 1.57319 8.755 1.66031Z" stroke="#D5DBE6" stroke-width="1.0625" stroke-linecap="round" stroke-linejoin="round"/>
<path d="M8.5 8.57227V15.4063" stroke="#D5DBE6" stroke-width="1.0625" stroke-linecap="round" stroke-linejoin="round"/>
</svg>
