<svg width="125" height="64" viewBox="0 0 125 64" fill="none" xmlns="http://www.w3.org/2000/svg">
<g filter="url(#filter0_i_3_904)">
<rect width="125" height="64" rx="8" fill="#10131C"/>
<mask id="mask0_3_904" style="mask-type:alpha" maskUnits="userSpaceOnUse" x="12" y="12" width="40" height="40">
<g clip-path="url(#clip0_3_904)">
<path d="M49.135 22.3667C48.9 22.1317 48.5817 22.0001 48.25 22.0001C47.9183 22.0001 47.6 22.1317 47.3667 22.3667L42 27.7334L36.2683 22.0001L41.635 16.6351C42.1233 16.1467 42.1233 15.3551 41.635 14.8667C41.1467 14.3784 40.355 14.3784 39.8667 14.8667L34.5 20.2334L30.385 16.1167C29.8967 15.6284 29.105 15.6284 28.6167 16.1167C28.1283 16.6051 28.1283 17.3967 28.6167 17.8851L29.6083 18.8751L21.3267 27.1567C20.155 28.3284 19.4967 29.9184 19.4967 31.5767C19.4967 33.2334 20.155 34.8234 21.3267 35.9967L23.7817 38.4501L16.1167 46.1167C15.6283 46.6051 15.6283 47.3967 16.1167 47.8851C16.605 48.3734 17.3967 48.3734 17.885 47.8851L25.555 40.2151L28.01 42.6701C29.1817 43.8417 30.7717 44.5001 32.43 44.5001C34.0867 44.5001 35.6767 43.8417 36.8483 42.6701L45.13 34.3884L46.1217 35.3801C46.61 35.8684 47.4017 35.8684 47.89 35.3801C48.3783 34.8917 48.3783 34.1001 47.89 33.6117L43.7683 29.5001L49.135 24.1351C49.37 23.9001 49.5017 23.5817 49.5017 23.2501C49.5017 22.9184 49.37 22.6001 49.135 22.3667ZM35.0817 40.9067C34.3783 41.6101 33.425 42.0067 32.43 42.0067C31.435 42.0067 30.48 41.6101 29.7767 40.9067L23.095 34.2234C22.39 33.5201 21.995 32.5667 21.995 31.5717C21.995 30.5767 22.39 29.6234 23.095 28.9201L31.375 20.6384L43.3583 32.6251L35.0817 40.9067Z" fill="black"/>
</g>
</mask>
<g mask="url(#mask0_3_904)">
<rect opacity="0.5" x="12" y="12" width="40" height="40" fill="#D5DBE6"/>
</g>
<rect x="62" y="13" width="1" height="38" fill="#D8E7F2" fill-opacity="0.07"/>
<mask id="mask1_3_904" style="mask-type:alpha" maskUnits="userSpaceOnUse" x="73" y="12" width="40" height="40">
<g clip-path="url(#clip1_3_904)">
<path d="M93 15.75C84.5883 15.75 78 19.5933 78 24.5V39.5C78 44.4067 84.5883 48.25 93 48.25C101.412 48.25 108 44.4067 108 39.5V24.5C108 19.5933 101.412 15.75 93 15.75ZM105.5 32C105.5 33.5033 104.268 35.0367 102.123 36.2067C99.7083 37.5233 96.4667 38.25 93 38.25C89.5333 38.25 86.2917 37.5233 83.8767 36.2067C81.7317 35.0367 80.5 33.5033 80.5 32V29.4C83.165 31.7433 87.7233 33.25 93 33.25C98.2767 33.25 102.835 31.7383 105.5 29.4V32ZM83.8767 20.2933C86.2917 18.9767 89.5333 18.25 93 18.25C96.4667 18.25 99.7083 18.9767 102.123 20.2933C104.268 21.4633 105.5 22.9967 105.5 24.5C105.5 26.0033 104.268 27.5367 102.123 28.7067C99.7083 30.0233 96.4667 30.75 93 30.75C89.5333 30.75 86.2917 30.0233 83.8767 28.7067C81.7317 27.5367 80.5 26.0033 80.5 24.5C80.5 22.9967 81.7317 21.4633 83.8767 20.2933ZM102.123 43.7067C99.7083 45.0233 96.4667 45.75 93 45.75C89.5333 45.75 86.2917 45.0233 83.8767 43.7067C81.7317 42.5367 80.5 41.0033 80.5 39.5V36.9C83.165 39.2433 87.7233 40.75 93 40.75C98.2767 40.75 102.835 39.2367 105.5 36.9V39.5C105.5 41.0033 104.268 42.5367 102.123 43.7067Z" fill="black"/>
</g>
</mask>
<g mask="url(#mask1_3_904)">
<rect opacity="0.5" x="73" y="12" width="40" height="40" fill="#D5DBE6"/>
</g>
</g>
<defs>
<filter id="filter0_i_3_904" x="0" y="0" width="125" height="65" filterUnits="userSpaceOnUse" color-interpolation-filters="sRGB">
<feFlood flood-opacity="0" result="BackgroundImageFix"/>
<feBlend mode="normal" in="SourceGraphic" in2="BackgroundImageFix" result="shape"/>
<feColorMatrix in="SourceAlpha" type="matrix" values="0 0 0 0 0 0 0 0 0 0 0 0 0 0 0 0 0 0 127 0" result="hardAlpha"/>
<feOffset dy="1"/>
<feGaussianBlur stdDeviation="0.5"/>
<feComposite in2="hardAlpha" operator="arithmetic" k2="-1" k3="1"/>
<feColorMatrix type="matrix" values="0 0 0 0 0.811765 0 0 0 0 0.905882 0 0 0 0 1 0 0 0 0.2 0"/>
<feBlend mode="normal" in2="shape" result="effect1_innerShadow_3_904"/>
</filter>
<clipPath id="clip0_3_904">
<rect width="40" height="40" fill="white" transform="translate(12 12)"/>
</clipPath>
<clipPath id="clip1_3_904">
<rect width="40" height="40" fill="white" transform="translate(73 12)"/>
</clipPath>
</defs>
</svg>
