<svg width="17" height="17" viewBox="0 0 17 17" fill="none" xmlns="http://www.w3.org/2000/svg">
<g clip-path="url(#clip0_3_175)">
<path d="M5.59583 11.4035L1.93729 10.0555C1.73117 9.97971 1.59375 9.78279 1.59375 9.5625C1.59375 9.34221 1.73117 9.14529 1.93729 9.06879L5.59583 7.72083L6.94379 4.06229C7.02029 3.85617 7.21721 3.71875 7.4375 3.71875C7.65779 3.71875 7.85471 3.85617 7.9305 4.06229L9.27846 7.72083L12.937 9.06879C13.1438 9.14529 13.2812 9.34221 13.2812 9.5625C13.2812 9.78279 13.1438 9.97971 12.937 10.0555L9.27846 11.4035L7.9305 15.062C7.85471 15.2688 7.65779 15.4062 7.4375 15.4062C7.21721 15.4062 7.02029 15.2688 6.94379 15.062L5.59583 11.4035Z" fill="#D5DBE6"/>
<path d="M5.59583 11.4035L1.93729 10.0555C1.73117 9.97971 1.59375 9.78279 1.59375 9.5625C1.59375 9.34221 1.73117 9.14529 1.93729 9.06879L5.59583 7.72083L6.94379 4.06229C7.02029 3.85617 7.21721 3.71875 7.4375 3.71875C7.65779 3.71875 7.85471 3.85617 7.9305 4.06229L9.27846 7.72083L12.937 9.06879C13.1438 9.14529 13.2812 9.34221 13.2812 9.5625C13.2812 9.78279 13.1438 9.97971 12.937 10.0555L9.27846 11.4035L7.9305 15.062C7.85471 15.2688 7.65779 15.4062 7.4375 15.4062C7.21721 15.4062 7.02029 15.2688 6.94379 15.062L5.59583 11.4035Z" stroke="#D5DBE6" stroke-width="1.0625" stroke-linecap="round" stroke-linejoin="round"/>
<path d="M11.6875 1.0625V4.25" stroke="#D5DBE6" stroke-width="1.0625" stroke-linecap="round" stroke-linejoin="round"/>
<path d="M14.875 4.78125V6.90625" stroke="#D5DBE6" stroke-width="1.0625" stroke-linecap="round" stroke-linejoin="round"/>
<path d="M10.0938 2.65625H13.2812" stroke="#D5DBE6" stroke-width="1.0625" stroke-linecap="round" stroke-linejoin="round"/>
<path d="M13.8125 5.84375H15.9375" stroke="#D5DBE6" stroke-width="1.0625" stroke-linecap="round" stroke-linejoin="round"/>
</g>
<defs>
<clipPath id="clip0_3_175">
<rect width="17" height="17" fill="white"/>
</clipPath>
</defs>
</svg>
