<svg width="26" height="26" viewBox="0 0 26 26" fill="none" xmlns="http://www.w3.org/2000/svg">
<g clip-path="url(#clip0_3_331)">
<path d="M1.03892 20.3125C2.68775 17.7775 5.50658 16.2478 8.53124 16.2478C11.5559 16.2478 14.3747 17.7775 16.0236 20.3125" stroke="#D5DBE6" stroke-width="1.58187" stroke-linecap="round" stroke-linejoin="round"/>
<path d="M17.4687 16.2501C20.4934 16.2479 23.3122 17.7776 24.961 20.3126" stroke="#D5DBE6" stroke-width="1.58187" stroke-linecap="round" stroke-linejoin="round"/>
<path d="M3.25 10.9688C3.25 8.05246 5.61491 5.68755 8.53124 5.68755C11.4476 5.68755 13.8125 8.05246 13.8125 10.9688C13.8125 13.8851 11.4476 16.25 8.53124 16.25C5.61491 16.25 3.25 13.8851 3.25 10.9688Z" stroke="#D5DBE6" stroke-width="1.58187" stroke-linecap="round" stroke-linejoin="round"/>
<path d="M15.5079 6.06339C17.4839 5.27581 19.7394 5.74922 21.23 7.26588C22.7218 8.78363 23.1573 11.0467 22.3361 13.0086C21.515 14.9705 19.5964 16.2478 17.4687 16.2499" stroke="#D5DBE6" stroke-width="1.58187" stroke-linecap="round" stroke-linejoin="round"/>
</g>
<defs>
<clipPath id="clip0_3_331">
<rect width="25.31" height="25.31" fill="white" transform="scale(1.02726)"/>
</clipPath>
</defs>
</svg>
