<svg width="26" height="26" viewBox="0 0 26 26" fill="none" xmlns="http://www.w3.org/2000/svg">
<path d="M10.5625 14.9727L20.5497 5.11227C20.7024 4.95952 20.9093 4.87394 21.1249 4.87394C21.3405 4.87394 21.5474 4.95952 21.7002 5.11227L24.1377 7.5086C24.2904 7.66135 24.376 7.86826 24.376 8.08385C24.376 8.29943 24.2904 8.50634 24.1377 8.65909L11.0965 21.6991C10.9449 21.8519 10.738 21.9375 10.5224 21.9375C10.3068 21.9375 10.0999 21.8519 9.94713 21.6991L2.67474 14.3867C2.35841 14.0692 2.35841 13.5557 2.67474 13.2383L5.11223 10.8008C5.26498 10.6481 5.4719 10.5625 5.68748 10.5625C5.90306 10.5625 6.10998 10.6481 6.26273 10.8008L10.5625 14.9727Z" fill="#D5DBE6" fill-opacity="0.2"/>
<path d="M10.5625 14.9727L20.5497 5.11227C20.7024 4.95952 20.9093 4.87394 21.1249 4.87394C21.3405 4.87394 21.5474 4.95952 21.7002 5.11227L24.1377 7.5086C24.2904 7.66135 24.376 7.86826 24.376 8.08385C24.376 8.29943 24.2904 8.50634 24.1377 8.65909L11.0965 21.6991C10.9449 21.8519 10.738 21.9375 10.5224 21.9375C10.3068 21.9375 10.0999 21.8519 9.94713 21.6991L2.67474 14.3867C2.35841 14.0692 2.35841 13.5557 2.67474 13.2383L5.11223 10.8008C5.26498 10.6481 5.4719 10.5625 5.68748 10.5625C5.90306 10.5625 6.10998 10.6481 6.26273 10.8008L10.5625 14.9727Z" stroke="#D5DBE6" stroke-width="1.56813" stroke-linecap="round" stroke-linejoin="round"/>
</svg>
