<svg width="25" height="25" viewBox="0 0 25 25" fill="none" xmlns="http://www.w3.org/2000/svg">
<path d="M4.6875 20.3125H1.5625C1.13125 20.3125 0.78125 19.9625 0.78125 19.5312V15.625C0.78125 15.1937 1.13125 14.8438 1.5625 14.8438H4.6875" stroke="#D5DBE6" stroke-width="1.5625" stroke-linecap="round" stroke-linejoin="round"/>
<path d="M10.9375 15.625H14.0625L20.6052 14.1198C21.0927 13.9865 21.6146 14.0875 22.0177 14.3938C22.4198 14.701 22.6552 15.1771 22.6562 15.6823C22.6562 16.2969 22.3094 16.8583 21.7594 17.1333L17.9687 18.75L11.7187 20.3125H4.6875V14.8438L7.12917 12.4021C7.56979 11.9635 8.16667 11.7177 8.78958 11.7188H13.6719C14.751 11.7188 15.625 12.5927 15.625 13.6719C15.625 14.751 14.751 15.625 13.6719 15.625H10.9375Z" stroke="#D5DBE6" stroke-width="1.5625" stroke-linecap="round" stroke-linejoin="round"/>
<path d="M18.75 2.34375V10.1562" stroke="#D5DBE6" stroke-width="1.5625" stroke-linecap="round" stroke-linejoin="round"/>
<path d="M21.875 7.03125L18.75 10.1562L15.625 7.03125" stroke="#D5DBE6" stroke-width="1.5625" stroke-linecap="round" stroke-linejoin="round"/>
</svg>
