<svg width="20" height="20" viewBox="0 0 20 20" fill="none" xmlns="http://www.w3.org/2000/svg">
<g clip-path="url(#clip0_3_2990)">
<path d="M6.58333 13.4158L2.27917 11.83C2.03667 11.7408 1.875 11.5092 1.875 11.25C1.875 10.9908 2.03667 10.7592 2.27917 10.6692L6.58333 9.08333L8.16917 4.77917C8.25917 4.53667 8.49083 4.375 8.75 4.375C9.00917 4.375 9.24083 4.53667 9.33 4.77917L10.9158 9.08333L15.22 10.6692C15.4633 10.7592 15.625 10.9908 15.625 11.25C15.625 11.5092 15.4633 11.7408 15.22 11.83L10.9158 13.4158L9.33 17.72C9.24083 17.9633 9.00917 18.125 8.75 18.125C8.49083 18.125 8.25917 17.9633 8.16917 17.72L6.58333 13.4158Z" stroke="white" stroke-width="1.25" stroke-linecap="round" stroke-linejoin="round"/>
<path d="M13.75 1.25V5" stroke="white" stroke-width="1.25" stroke-linecap="round" stroke-linejoin="round"/>
<path d="M17.5 5.625V8.125" stroke="white" stroke-width="1.25" stroke-linecap="round" stroke-linejoin="round"/>
<path d="M11.875 3.125H15.625" stroke="white" stroke-width="1.25" stroke-linecap="round" stroke-linejoin="round"/>
<path d="M16.25 6.875H18.75" stroke="white" stroke-width="1.25" stroke-linecap="round" stroke-linejoin="round"/>
</g>
<defs>
<clipPath id="clip0_3_2990">
<rect width="20" height="20" fill="white"/>
</clipPath>
</defs>
</svg>
